<?xml version="1.0" encoding="UTF-8"?>
<svg id="Layer_2" data-name="Layer 2" xmlns="http://www.w3.org/2000/svg" viewBox="0 0 532.45 86">
  <defs>
    <style>
      .cls-1 {
        fill: #002e8b;
      }

      .cls-2 {
        fill: #006ced;
      }

      .cls-3 {
        fill: #f80;
      }

      .cls-4 {
        fill: #0b8bff;
      }

      .cls-5 {
        fill: #1c0353;
      }

      .cls-6 {
        fill: #29bdff;
      }
    </style>
  </defs>
  <g id="Layer_1-2" data-name="Layer 1">
    <g>
      <g>
        <path class="cls-2" d="m122.2,24.45c-3.08,0-4.35,1.18-4.35,4.08v1.18c0,2.99.91,3.9,4.81,4.81l21.5,4.72c12.7,2.72,16.96,7.07,16.96,17.23v4.54c0,9.8-6.53,15.15-18.68,15.15h-41l1.18-8.44c.36-2.54,1.63-3.63,4.35-3.63h34.65c3.17,0,4.63-1.18,4.63-4.17v-2.54c0-3.08-1-4.08-5.08-4.99l-20.77-4.54c-12.79-2.81-17.42-7.53-17.42-17.69v-2.54c0-9.89,6.53-15.24,18.68-15.24h37.1l-1.27,8.44c-.36,2.54-1.63,3.63-4.35,3.63h-30.93Z"/>
        <path class="cls-2" d="m167.91,59.92c0-9.07,5.17-13.61,15.33-13.61h17.78v-2.63c.09-3.36-1.45-4.63-4.72-4.63h-20.41c-2.63,0-3.81-1.09-4.17-3.63l-1.18-7.89h24.58c15.69,0,20.23,6.35,20.23,17.32v31.29h-8.25c-2.27,0-3.08-.54-3.72-2.36l-.91-2.9h-.36c-2.18,3.9-6.71,6.08-12.79,6.08h-6.08c-9.52,0-15.33-3.99-15.33-13.42v-3.63Zm23.67,5.9c6.53,0,9.43-2.18,9.43-6.8v-2.81h-14.97c-2.72,0-3.81.91-3.81,3.45v2.63c0,2.54,1.09,3.54,3.81,3.54h5.53Z"/>
        <path class="cls-2" d="m240.84,9.85v22.04h.36c1.9-3.27,5.99-5.17,11.61-5.17h6.26c11.7,0,18.78,6.53,18.78,18.68v12.88c0,11.7-6.62,18.68-18.78,18.68h-6.44c-6.17,0-10.7-2.18-12.88-6.08h-.36l-.91,2.9c-.63,1.81-1.45,2.36-3.72,2.36h-8.25V9.85h14.33Zm0,47.71c0,5.71,2.63,7.8,8.34,7.8h5.9c5.71,0,8.44-2.09,8.44-7.8v-11.43c0-5.71-2.72-7.8-8.44-7.8h-5.9c-5.71,0-8.34,2.09-8.34,7.8v11.43Z"/>
        <path class="cls-3" d="m323.02,12.39c15.15,0,22.77,6.71,22.77,19.86v3.63c.18,13.06-7.62,19.86-22.77,19.86h-20.68v20.41h-14.88V12.39h35.56Zm-20.68,12.06v19.23h20.23c5.99,0,8.34-2.27,8.34-7.53v-4.17c0-5.35-2.45-7.53-8.34-7.53h-20.23Z"/>
        <path class="cls-3" d="m352.13,59.92c0-9.07,5.17-13.61,15.33-13.61h17.78v-2.63c.09-3.36-1.45-4.63-4.72-4.63h-20.41c-2.63,0-3.81-1.09-4.17-3.63l-1.18-7.89h24.58c15.69,0,20.23,6.35,20.23,17.32v31.29h-8.25c-2.27,0-3.08-.54-3.72-2.36l-.91-2.9h-.36c-2.18,3.9-6.71,6.08-12.79,6.08h-6.08c-9.52,0-15.33-3.99-15.33-13.42v-3.63Zm23.67,5.9c6.53,0,9.43-2.18,9.43-6.8v-2.81h-14.97c-2.72,0-3.81.91-3.81,3.45v2.63c0,2.54,1.09,3.54,3.81,3.54h5.53Z"/>
        <path class="cls-3" d="m410.73,20.91v-11.88h14.88v11.88h-14.88Zm.27,55.24V27.54h14.33v48.62h-14.33Z"/>
        <path class="cls-3" d="m462.24,64.63c1.27,0,2-.73,2-2v-.73c0-1.36-.54-1.9-2-2.36l-16.42-4.35c-7.53-2-11.25-6.53-11.25-13.61v-2c0-7.07,5.53-12.06,13.51-12.06h28.66l-1.09,7.89c-.36,2.54-1.63,3.63-4.26,3.63h-20.68c-1.18,0-1.9.73-1.9,1.9v.64c0,1.27.54,1.81,1.9,2.18l16.6,4.44c7.71,2.09,11.25,6.26,11.25,13.42v2.81c0,6.98-5.35,11.7-13.42,11.7h-31.29l1.09-7.89c.36-2.54,1.63-3.63,4.26-3.63h23.04Z"/>
        <path class="cls-3" d="m485.01,59.92c0-9.07,5.17-13.61,15.33-13.61h17.78v-2.63c.09-3.36-1.45-4.63-4.72-4.63h-20.41c-2.63,0-3.81-1.09-4.17-3.63l-1.18-7.89h24.58c15.69,0,20.23,6.35,20.23,17.32v31.29h-8.25c-2.27,0-3.08-.54-3.72-2.36l-.91-2.9h-.36c-2.18,3.9-6.71,6.08-12.79,6.08h-6.08c-9.52,0-15.33-3.99-15.33-13.42v-3.63Zm23.67,5.9c6.53,0,9.43-2.18,9.43-6.8v-2.81h-14.97c-2.72,0-3.81.91-3.81,3.45v2.63c0,2.54,1.09,3.54,3.81,3.54h5.53Z"/>
      </g>
      <g>
        <path class="cls-1" d="m69.52,25.37s0,.01,0,.02c-.03.18-.07.36-.11.52-.04.18-.09.34-.13.5-.03.1-.06.19-.08.27-.05.15-.1.28-.14.41-.03.08-.06.17-.09.23-.12.28-.2.44-.2.44-.99,2.6-3.62,5.65-6.01,8.05-.15.15-.31.31-.46.46-.83.82-1.62,1.55-2.27,2.14-.1.09-.2.17-.29.26-.11.1-.22.19-.32.28-.05.05-.1.09-.14.13-.06.05-.12.1-.17.15-.04.03-.07.06-.1.09-.04.04-.08.07-.12.1-.04.04-.09.08-.13.11-.07.06-.13.11-.18.15-.12.1-.22.18-.28.23-.02.01-.03.03-.04.03,0,0-.02.02-.03.02-.02.01-.02.02-.02.02l-9.17-9.38v8.95h-19.69l18.83-18.85,1.11-1.11c2.64-2.38,6.13-3.83,9.96-3.83.53,0,1.06.03,1.58.08,2.94.31,5.63,1.48,7.81,3.26,0,0,0,0,0,0,0,0,0,0,.02,0,0,0,0,0,0,.01.02.03.03.06.05.1.16.33.3.67.42.99.02.07.05.14.07.21.05.15.1.3.14.45.47,1.69.39,3.26.17,4.48Z"/>
        <path class="cls-6" d="m14.1,45.26l-.21.22c-.67.66-1.23,1.2-1.77,1.72.83-.81,1.47-1.44,1.98-1.94Z"/>
        <path class="cls-4" d="m18.04,46.53c-.9.65-4.45,3.32-7.34,6.76,1.62-1.99,4.03-4.48,7.34-6.76Z"/>
        <path class="cls-5" d="m69.1,33.64s-3.25,4.33-8.38,8.87c-.02.02-.03.03-.05.05l-2.46-2.55s0,0,.02-.02c0,0,.02-.02.03-.02.02,0,.03-.02.04-.03.07-.05.16-.13.28-.23.05-.05.12-.1.18-.15.04-.03.08-.07.13-.11.04-.03.08-.07.12-.1.03-.03.07-.06.1-.09.05-.05.11-.09.17-.15.05-.04.09-.08.14-.13.1-.08.2-.18.32-.28.09-.08.19-.17.29-.26.65-.59,1.44-1.32,2.27-2.14.15-.15.31-.31.46-.46,2.33-2.36,4.9-5.36,6.01-8.05,0,0,.08-.16.2-.44.03-.07.06-.15.09-.23.04-.12.09-.26.14-.41.03-.08.06-.18.08-.27.04-.16.09-.32.13-.5.04-.17.08-.34.11-.52,0,0,0-.01,0-.02.23-1.22.3-2.79-.17-4.48-.04-.15-.08-.3-.14-.45-.02-.07-.05-.14-.07-.21-.13-.37-.3-.73-.49-1.1,0,0,0,0,.02,0,0,0,0,0,0,.01.56.45,1.08.94,1.56,1.47.73,1.29,1.34,2.99,1.35,5.11,0,0,.5,4.29-2.48,7.9Z"/>
        <path class="cls-1" d="m47.11,46.37l-19.3,19.37-.73.74c-2.66,2.49-6.24,4.01-10.17,4.01-3.34,0-6.42-1.1-8.9-2.96t0,0c-1.24-1.9-2.46-5.38.02-10.35,0,0,.16-.31.5-.85.05-.09.08-.13.08-.13.05-.08.1-.17.16-.25.05-.08.1-.16.15-.23.05-.07.1-.15.15-.22.05-.07.09-.13.14-.2.28-.41.63-.88,1.02-1.39.07-.08.13-.17.2-.26.09-.11.18-.23.28-.34,2.89-3.44,6.43-6.11,7.34-6.76.14-.1.22-.15.22-.15l9.09,9.02v-9.02h19.76Z"/>
        <path class="cls-2" d="m44.83,11.54c.7.7.71,1.83.02,2.53l-26.36,26.75-2.72,2.76s-.02.02-.08.08c-.02.02-.04.04-.07.07-.1.09-.23.24-.45.45-.05.05-.11.11-.17.17-.03.03-.06.07-.1.1-.1.1-.21.21-.33.33-.08.08-.17.17-.27.27-.07.07-.13.13-.2.2-.06.06-.13.12-.2.19-.52.51-1.3,1.26-2.03,1.97l-1.6,1.58c-.24.23-.47.46-.68.69-7.83,8.26-3.41,15.87-2.92,16.66.01.02.03.04.04.06l.09.14c-.4-.37-.78-.77-1.14-1.18h0c-.9-1.17-1.66-2.37-2.3-3.6,0-.01-.01-.02-.02-.03C-1.4,52.73.23,42.77.43,41.36c1.69-11.69,8.86-19.17,11.87-22.06.45-.43.9-.87,1.35-1.31L31.17.52c.7-.7,1.83-.7,2.53,0l11.13,11.02Z"/>
        <path class="cls-5" d="m18.26,46.37s-.08.05-.22.15c-.9.65-4.45,3.32-7.34,6.76-.09.12-.18.23-.28.34-.07.08-.14.17-.2.26-.36.45-.71.92-1.02,1.39-.05.07-.09.13-.14.2-.05.07-.1.15-.15.22-.05.08-.1.16-.15.23-.06.08-.11.17-.16.25,0,0-.03.05-.08.13-.34.54-.5.85-.5.85-2.49,4.97-1.26,8.46-.02,10.35-.42-.31-.81-.64-1.19-.99l-.09-.14s-.03-.04-.04-.06c-.49-.78-4.91-8.4,2.92-16.66.22-.23.44-.46.68-.69l1.6-1.58c.73-.71,1.51-1.46,2.03-1.97.07-.07.13-.13.2-.19.07-.07.14-.14.2-.2.09-.09.18-.18.27-.27.12-.12.23-.23.33-.33.03-.03.07-.07.1-.1.06-.06.12-.12.17-.17.21-.22.35-.36.45-.45.03-.03.05-.05.07-.07.06-.06.08-.08.08-.08l2.5,2.79Z"/>
        <path class="cls-2" d="m68.12,62.46s-6.12,6.66-9.29,9.45l-13.67,13.57c-.7.69-1.82.69-2.52,0l-11.3-11.13c-.71-.7-.71-1.84-.01-2.55l24.72-24.75c.54-.54,1.08-1.07,1.62-1.61.99-.97,1.99-1.94,2.99-2.91.02-.02.03-.03.05-.05,5.13-4.54,8.38-8.87,8.38-8.87,2.98-3.61,2.48-7.9,2.48-7.9-.01-2.12-.62-3.82-1.35-5.11.24.26.47.52.69.8.21.27.42.54.6.82.02.02.04.05.05.07.17.27.35.54.52.84,2.06,3.37,4.29,8.35,4.35,14.13,0,0,.97,13.58-8.32,25.18Z"/>
      </g>
    </g>
  </g>
</svg>