<svg xmlns="http://www.w3.org/2000/svg" width="67.038" height="75.391" viewBox="0 0 67.038 75.391">
  <g id="Group_46306" data-name="Group 46306" transform="translate(787 -4029.38)">
    <path id="Path_42068" data-name="Path 42068" d="M60.945,23.624a.034.034,0,0,1,0,.017c-.031.162-.064.314-.1.459s-.078.3-.115.438c-.024.084-.051.165-.074.24-.041.131-.084.249-.122.357-.027.074-.054.145-.077.206-.1.25-.172.388-.172.388-.867,2.277-3.171,4.952-5.266,7.053-.135.135-.27.274-.405.4-.728.719-1.416,1.36-1.99,1.876-.088.077-.172.152-.253.226-.1.087-.189.168-.276.243-.044.04-.085.077-.125.111s-.1.088-.145.128-.064.054-.091.078-.075.064-.108.091-.078.067-.112.1c-.057.05-.111.094-.158.135-.108.091-.189.158-.246.2a.345.345,0,0,1-.038.031l-.023.02a.121.121,0,0,0-.02.017l-8.035-8.221v7.843H25.735L42.24,19.539l.972-.972a12.97,12.97,0,0,1,8.73-3.356,12.681,12.681,0,0,1,1.386.074,12.954,12.954,0,0,1,6.848,2.861s0-.007,0,0,.007,0,.014,0l.007.01a.736.736,0,0,1,.043.084c.142.294.263.584.368.87.02.061.044.125.064.186.044.135.084.266.122.4a8.79,8.79,0,0,1,.148,3.923" transform="translate(-787 4028)" fill="#0b3085"/>
    <path id="Path_42069" data-name="Path 42069" d="M12.363,41.057l-.186.189c-.583.577-1.076,1.056-1.548,1.511.725-.708,1.292-1.265,1.734-1.7" transform="translate(-787 4028)" fill="#5abbf8"/>
    <path id="Path_42070" data-name="Path 42070" d="M15.817,42.166a38.708,38.708,0,0,0-6.433,5.927,31.257,31.257,0,0,1,6.433-5.927" transform="translate(-787 4028)" fill="#3a8bf6"/>
    <path id="Path_42071" data-name="Path 42071" d="M60.577,30.866a58.652,58.652,0,0,1-7.347,7.775l-.047.041-2.156-2.237.021-.017.023-.02a.2.2,0,0,0,.037-.03c.058-.047.139-.115.247-.206.047-.04.1-.084.158-.135.034-.03.074-.061.111-.1s.071-.057.108-.091l.091-.077c.044-.041.095-.081.145-.128s.081-.071.125-.112c.088-.074.179-.155.277-.243.081-.071.165-.145.253-.226.573-.516,1.261-1.157,1.99-1.875.135-.132.27-.27.405-.4,2.041-2.068,4.294-4.7,5.266-7.053,0,0,.07-.139.172-.388.023-.061.05-.132.077-.206.037-.108.081-.226.122-.358.023-.074.05-.155.074-.239.037-.139.077-.284.115-.439s.067-.3.1-.459a.024.024,0,0,0,0-.016A8.644,8.644,0,0,0,60.8,19.7c-.033-.132-.074-.264-.121-.4-.02-.06-.044-.124-.064-.185a7.8,7.8,0,0,0-.432-.968s.007,0,.013,0,0,.007.007.01a12.094,12.094,0,0,1,1.366,1.292,9.043,9.043,0,0,1,1.184,4.483,10,10,0,0,1-2.172,6.929" transform="translate(-787 4028)" fill="#18084f"/>
    <path id="Path_42072" data-name="Path 42072" d="M41.3,42.031,24.375,59.012l-.644.648a13.045,13.045,0,0,1-16.714.927l0,0c-1.086-1.663-2.159-4.719.02-9.078,0,0,.139-.273.436-.748.043-.078.07-.118.07-.118.048-.075.092-.149.142-.223s.088-.138.135-.206.084-.128.128-.192.078-.118.122-.179c.249-.361.55-.772.9-1.221.057-.074.118-.152.179-.226.081-.1.162-.2.243-.3a38.715,38.715,0,0,1,6.432-5.927l.189-.135,7.971,7.907V42.031Z" transform="translate(-787 4028)" fill="#0b3085"/>
    <path id="Path_42073" data-name="Path 42073" d="M39.3,11.493a1.572,1.572,0,0,1,.014,2.221L16.2,37.161l-2.388,2.422s-.017.02-.068.071c-.016.017-.033.037-.057.06-.084.081-.206.21-.391.4-.047.048-.1.1-.152.152-.027.031-.054.058-.084.088-.085.088-.183.185-.29.293l-.233.233-.179.179c-.054.051-.111.108-.172.169-.455.445-1.144,1.1-1.781,1.727l-1.4,1.383c-.21.2-.409.405-.6.607-6.862,7.239-2.986,13.915-2.557,14.6.01.017.023.034.033.05l.081.122a13.686,13.686,0,0,1-1-1.032l-.008-.01a21.12,21.12,0,0,1-2.019-3.144.119.119,0,0,1-.014-.031C-1.228,47.608.2,38.874.381,37.636,1.859,27.392,8.146,20.831,10.788,18.294c.4-.381.789-.762,1.18-1.15l15.359-15.3a1.572,1.572,0,0,1,2.216,0Z" transform="translate(-787 4028)" fill="#286ee4"/>
    <path id="Path_42074" data-name="Path 42074" d="M16.006,42.031l-.189.135a38.708,38.708,0,0,0-6.433,5.927c-.081.1-.162.2-.243.3-.06.074-.121.152-.178.226-.317.4-.621.8-.9,1.221-.043.061-.081.118-.121.179s-.088.128-.128.192-.091.138-.135.206-.1.148-.142.223c0,0-.027.04-.071.118-.3.475-.435.748-.435.748-2.179,4.359-1.106,7.415-.02,9.078a12.927,12.927,0,0,1-1.046-.867L5.886,59.6c-.01-.017-.023-.034-.034-.051-.428-.688-4.3-7.364,2.557-14.6.189-.2.388-.405.6-.607l1.4-1.383c.637-.624,1.325-1.282,1.781-1.727.061-.061.118-.118.172-.169l.179-.179.232-.232c.108-.108.206-.206.291-.294.03-.03.057-.057.084-.088l.152-.151c.185-.189.307-.317.391-.4.024-.024.04-.044.057-.061.051-.051.068-.071.068-.071Z" transform="translate(-787 4028)" fill="#18084f"/>
    <path id="Path_42075" data-name="Path 42075" d="M59.717,56.135s-5.363,5.836-8.143,8.285l-11.982,11.9a1.573,1.573,0,0,1-2.211,0l-9.907-9.754a1.571,1.571,0,0,1-.009-2.231l21.673-21.7c.473-.473.945-.942,1.421-1.41q1.3-1.281,2.624-2.547l.047-.041a58.652,58.652,0,0,0,7.347-7.775,10,10,0,0,0,2.173-6.929,9.064,9.064,0,0,0-1.184-4.483c.212.226.411.459.6.7s.365.475.53.722a.349.349,0,0,1,.044.064c.152.233.3.475.459.732A24.592,24.592,0,0,1,67.013,34.06a34.678,34.678,0,0,1-7.3,22.075" transform="translate(-787 4028)" fill="#286ee4"/>
  </g>
</svg>
