<svg xmlns="http://www.w3.org/2000/svg" width="67.026" height="75.378" viewBox="0 0 67.026 75.378">
  <g id="Group_46308" data-name="Group 46308" transform="translate(-386.724 -4032.258)">
    <path id="Path_42036" data-name="Path 42036" d="M1234.658,26.5a.035.035,0,0,1,0,.017c-.031.162-.065.314-.1.459s-.078.3-.115.438c-.024.084-.05.165-.074.239-.04.132-.084.25-.121.358-.027.074-.054.145-.078.206-.1.249-.172.388-.172.388-.867,2.276-3.17,4.951-5.265,7.052-.135.135-.27.273-.4.4-.729.719-1.417,1.36-1.99,1.876-.088.077-.172.151-.253.226-.1.087-.189.168-.277.242-.044.041-.084.078-.125.112s-.1.087-.145.128-.064.054-.091.078-.074.064-.108.091-.077.067-.111.1c-.057.051-.111.1-.159.135-.107.091-.188.159-.246.206a.2.2,0,0,1-.037.03c-.007.007-.017.014-.023.021l-.021.016-8.033-8.219V38.94h-17.255l16.5-16.526.971-.972a12.97,12.97,0,0,1,8.728-3.355,12.466,12.466,0,0,1,1.387.074,12.942,12.942,0,0,1,6.846,2.86s0-.007,0,0,.007,0,.014,0l.007.01a.748.748,0,0,1,.043.084,9.119,9.119,0,0,1,.368.87c.02.061.044.125.064.186.044.135.085.266.122.4a8.786,8.786,0,0,1,.148,3.922" transform="translate(-787 4028)" fill="#f3c496"/>
    <path id="Path_42037" data-name="Path 42037" d="M1186.085,43.927l-.186.189c-.583.577-1.075,1.056-1.548,1.511.726-.708,1.292-1.265,1.734-1.7" transform="translate(-787 4028)" fill="#5abbf8"/>
    <path id="Path_42038" data-name="Path 42038" d="M1189.538,45.037a38.657,38.657,0,0,0-6.432,5.926,31.276,31.276,0,0,1,6.432-5.926" transform="translate(-787 4028)" fill="#3a8bf6"/>
    <path id="Path_42039" data-name="Path 42039" d="M1234.29,33.739a58.634,58.634,0,0,1-7.346,7.774c-.016.013-.03.027-.047.04l-2.155-2.236.02-.016.024-.021a.244.244,0,0,0,.037-.03l.246-.206c.047-.04.1-.084.159-.135.033-.03.074-.06.111-.1s.071-.057.108-.091.057-.05.091-.077.094-.081.145-.128.081-.071.125-.112c.087-.074.179-.155.276-.242.081-.071.166-.145.253-.226.574-.516,1.262-1.157,1.99-1.876.135-.131.27-.269.405-.4,2.04-2.068,4.293-4.7,5.265-7.053,0,0,.07-.138.172-.387.023-.061.05-.132.077-.206.037-.108.081-.226.122-.358.023-.074.05-.155.074-.239.037-.138.077-.283.114-.439s.068-.3.1-.458a.027.027,0,0,0,0-.017,8.644,8.644,0,0,0-.149-3.923c-.033-.131-.074-.263-.121-.4-.02-.061-.044-.125-.064-.186a7.85,7.85,0,0,0-.432-.968s.007,0,.014,0,0,.007.006.011a11.986,11.986,0,0,1,1.366,1.291,9.05,9.05,0,0,1,1.184,4.483,10,10,0,0,1-2.172,6.927" transform="translate(-787 4028)" fill="#f3ae6e"/>
    <path id="Path_42040" data-name="Path 42040" d="M1215.015,44.9,1198.094,61.88l-.644.648a13.044,13.044,0,0,1-16.711.927l0,0c-1.086-1.663-2.158-4.719.02-9.076,0,0,.139-.273.436-.749.043-.077.07-.118.07-.118.048-.074.092-.148.142-.223s.088-.138.135-.2.084-.128.128-.193.078-.118.122-.178c.249-.361.549-.773.9-1.221.057-.074.118-.152.178-.226.081-.1.162-.2.243-.3a38.657,38.657,0,0,1,6.432-5.926c.121-.088.189-.135.189-.135l7.969,7.906V44.9Z" transform="translate(-787 4028)" fill="#f3c496"/>
    <path id="Path_42041" data-name="Path 42041" d="M1213.02,14.369a1.573,1.573,0,0,1,.014,2.221l-23.108,23.442-2.388,2.422s-.016.02-.067.071c-.017.017-.034.037-.057.06-.085.081-.206.209-.392.4l-.151.152c-.027.03-.054.057-.085.088-.084.087-.182.185-.29.293l-.232.233-.179.179c-.054.05-.112.108-.172.168-.455.446-1.143,1.1-1.781,1.727l-1.4,1.383q-.313.3-.6.607c-6.86,7.238-2.985,13.912-2.556,14.6.01.017.023.034.033.051l.081.121a13.687,13.687,0,0,1-1-1.032l-.008-.009a21.167,21.167,0,0,1-2.019-3.144.122.122,0,0,1-.014-.031c-4.155-7.892-2.725-16.623-2.546-17.861,1.477-10.243,7.764-16.8,10.405-19.339.4-.381.789-.762,1.18-1.15l15.356-15.3a1.573,1.573,0,0,1,2.216,0Z" transform="translate(-787 4028)" fill="#fff"/>
    <path id="Path_42042" data-name="Path 42042" d="M1189.727,44.9l-.189.135a38.66,38.66,0,0,0-6.431,5.926c-.081.1-.162.2-.243.3-.061.074-.122.152-.179.226-.317.394-.621.8-.9,1.221-.044.06-.081.118-.122.178s-.087.129-.128.193-.091.138-.135.2-.094.149-.141.223c0,0-.027.041-.071.118-.3.476-.435.749-.435.749-2.179,4.357-1.107,7.413-.02,9.076a12.776,12.776,0,0,1-1.046-.867l-.081-.122c-.01-.016-.024-.033-.034-.05-.428-.688-4.3-7.363,2.557-14.6q.284-.3.6-.607l1.4-1.383c.637-.624,1.325-1.282,1.781-1.727.06-.061.118-.118.172-.169l.178-.178.233-.233c.108-.108.206-.206.29-.294.03-.03.057-.057.084-.087l.152-.152c.186-.189.307-.317.391-.4.024-.024.041-.044.058-.061.05-.05.067-.071.067-.071Z" transform="translate(-787 4028)" fill="#f3ae6e"/>
    <path id="Path_42043" data-name="Path 42043" d="M1233.43,59s-5.363,5.835-8.142,8.283l-11.979,11.893a1.573,1.573,0,0,1-2.211,0l-9.905-9.751a1.573,1.573,0,0,1-.009-2.232l21.669-21.692q.71-.708,1.42-1.41,1.3-1.28,2.624-2.546l.047-.041a58.563,58.563,0,0,0,7.346-7.774,10,10,0,0,0,2.172-6.927,9.049,9.049,0,0,0-1.184-4.482c.213.226.412.458.6.7s.364.476.529.722a.351.351,0,0,1,.044.064c.152.233.3.476.459.732a24.585,24.585,0,0,1,3.811,12.384A34.669,34.669,0,0,1,1233.43,59" transform="translate(-787 4028)" fill="#fff"/>
  </g>
</svg>
