<svg xmlns="http://www.w3.org/2000/svg" width="67.069" height="75.426" viewBox="0 0 67.069 75.426">
  <g id="Group_46307" data-name="Group 46307" transform="translate(199.504 -4027.999)">
    <path id="Path_42052" data-name="Path 42052" d="M648.468,22.254a.034.034,0,0,1,0,.017c-.031.162-.065.314-.1.459s-.078.3-.115.439c-.024.084-.051.165-.074.239-.041.132-.085.25-.122.358-.027.074-.054.145-.077.206-.1.249-.172.388-.172.388-.868,2.278-3.173,4.954-5.268,7.056-.135.135-.27.274-.405.4-.729.719-1.418,1.36-1.991,1.877-.088.077-.173.152-.254.226q-.145.132-.276.243c-.044.04-.085.077-.125.111s-.1.088-.145.128-.064.054-.091.078-.075.064-.108.091-.078.068-.112.1c-.057.051-.111.1-.158.135-.108.091-.189.159-.247.206a.257.257,0,0,1-.037.03l-.023.02-.021.017-8.038-8.224V34.7H613.243l16.512-16.536.972-.972a12.978,12.978,0,0,1,8.734-3.358,12.467,12.467,0,0,1,1.387.075,12.958,12.958,0,0,1,6.851,2.861s0-.006,0,0,.007,0,.013,0,0,.007.007.01a.565.565,0,0,1,.044.085c.142.293.263.584.368.87.02.061.044.125.064.186.044.135.084.267.122.4a8.8,8.8,0,0,1,.148,3.925" transform="translate(-787 4028)" fill="#89c1f9"/>
    <path id="Path_42053" data-name="Path 42053" d="M599.865,39.694l-.186.189c-.583.577-1.076,1.056-1.549,1.512.726-.709,1.293-1.266,1.735-1.7" transform="translate(-787 4028)" fill="#5abbf8"/>
    <path id="Path_42054" data-name="Path 42054" d="M603.321,40.805a38.771,38.771,0,0,0-6.436,5.929,31.313,31.313,0,0,1,6.436-5.929" transform="translate(-787 4028)" fill="#3a8bf6"/>
    <path id="Path_42055" data-name="Path 42055" d="M648.1,29.5a58.66,58.66,0,0,1-7.35,7.779c-.017.013-.031.027-.047.04l-2.157-2.237a.219.219,0,0,1,.02-.017c.007-.007.017-.014.024-.02a.266.266,0,0,0,.037-.031c.058-.047.139-.114.246-.206.048-.04.1-.084.159-.135.034-.03.074-.06.111-.1s.071-.058.108-.092.058-.05.092-.077.094-.081.145-.128.081-.071.125-.112c.087-.074.178-.155.276-.243.081-.071.166-.145.253-.226.574-.516,1.263-1.157,1.992-1.876.134-.132.269-.27.4-.4,2.042-2.069,4.3-4.7,5.268-7.057,0,0,.071-.138.173-.388.023-.061.05-.131.077-.206.037-.108.081-.226.122-.357.023-.075.05-.156.074-.24.037-.138.077-.283.115-.439s.067-.3.1-.459a.032.032,0,0,0,0-.017,8.649,8.649,0,0,0-.149-3.924c-.033-.132-.074-.264-.121-.4-.02-.06-.044-.124-.064-.185a7.8,7.8,0,0,0-.432-.969s.007,0,.013,0l.007.01a12.188,12.188,0,0,1,1.367,1.292,9.062,9.062,0,0,1,1.184,4.485A10.006,10.006,0,0,1,648.1,29.5" transform="translate(-787 4028)" fill="#75b1f8"/>
    <path id="Path_42056" data-name="Path 42056" d="M628.814,40.67,611.883,57.658l-.645.648a13.05,13.05,0,0,1-16.721.928l0,0c-1.086-1.664-2.16-4.721.02-9.081,0,0,.139-.274.436-.75.044-.077.071-.118.071-.118.047-.074.091-.148.141-.222s.088-.139.135-.206.085-.129.129-.193.077-.118.121-.179c.25-.361.55-.772.9-1.221.057-.074.118-.152.179-.226.081-.1.162-.2.243-.3a38.738,38.738,0,0,1,6.435-5.929l.189-.135,7.975,7.91V40.67Z" transform="translate(-787 4028)" fill="#89c1f9"/>
    <path id="Path_42057" data-name="Path 42057" d="M626.817,10.117a1.572,1.572,0,0,1,.014,2.222L603.709,35.8l-2.389,2.423s-.017.02-.068.071c-.017.017-.034.037-.057.061-.084.081-.206.209-.392.4l-.151.152c-.027.03-.054.057-.085.088-.084.087-.182.185-.29.293l-.233.233-.179.179c-.054.051-.111.108-.172.169-.455.445-1.144,1.1-1.782,1.727l-1.4,1.384q-.314.3-.6.608c-6.864,7.242-2.987,13.92-2.558,14.609.01.017.024.034.034.05l.081.122a13.715,13.715,0,0,1-1-1.033l-.008-.009a21.114,21.114,0,0,1-2.02-3.146.1.1,0,0,1-.014-.031c-4.158-7.9-2.727-16.634-2.548-17.872,1.478-10.249,7.769-16.813,10.411-19.351.4-.381.79-.763,1.181-1.151L614.836.458a1.573,1.573,0,0,1,2.217,0Z" transform="translate(-787 4028)" fill="#fff"/>
    <path id="Path_42058" data-name="Path 42058" d="M603.51,40.67s-.068.047-.189.135a38.771,38.771,0,0,0-6.436,5.929c-.081.1-.162.2-.243.3-.06.074-.121.152-.178.226-.318.395-.621.8-.9,1.221-.044.061-.081.119-.122.179s-.087.129-.128.193-.091.138-.135.206-.094.148-.142.222c0,0-.027.041-.07.118-.3.476-.436.75-.436.75-2.18,4.36-1.107,7.417-.02,9.081a12.765,12.765,0,0,1-1.046-.867l-.081-.122c-.01-.017-.024-.034-.034-.05-.429-.689-4.306-7.367,2.558-14.61.189-.2.388-.405.6-.607l1.4-1.384c.638-.624,1.327-1.282,1.782-1.728.061-.06.118-.118.172-.168l.179-.179.233-.233c.108-.108.206-.206.29-.294.031-.03.058-.057.085-.087l.151-.152c.186-.189.308-.317.392-.4.024-.024.04-.044.057-.061.051-.051.068-.071.068-.071Z" transform="translate(-787 4028)" fill="#75b1f8"/>
    <path id="Path_42059" data-name="Path 42059" d="M647.24,54.779s-5.366,5.838-8.147,8.288l-11.987,11.9a1.573,1.573,0,0,1-2.211,0l-9.912-9.758a1.573,1.573,0,0,1-.009-2.233l21.683-21.7q.708-.709,1.421-1.411,1.3-1.281,2.625-2.548c.017-.013.031-.027.047-.04A58.787,58.787,0,0,0,648.1,29.5a10.006,10.006,0,0,0,2.173-6.932,9.051,9.051,0,0,0-1.185-4.485c.213.226.412.459.6.7s.365.476.53.722a.389.389,0,0,1,.044.064c.152.233.3.476.459.733a24.609,24.609,0,0,1,3.814,12.392,34.691,34.691,0,0,1-7.3,22.084" transform="translate(-787 4028)" fill="#fff"/>
  </g>
</svg>
